<svg width="16" height="18" viewBox="0 0 16 18" fill="none" xmlns="http://www.w3.org/2000/svg">
<path d="M14.8591 6.13681C14.7547 6.21782 12.9113 7.25653 12.9113 9.56616C12.9113 12.2376 15.2569 13.1827 15.3271 13.2061C15.3163 13.2637 14.9545 14.5005 14.0904 15.7606C13.3199 16.8695 12.5153 17.9766 11.2911 17.9766C10.067 17.9766 9.75198 17.2655 8.33884 17.2655C6.9617 17.2655 6.47205 18 5.35234 18C4.23263 18 3.45135 16.9739 2.55306 15.7138C1.51256 14.234 0.671875 11.9352 0.671875 9.75338C0.671875 6.25383 2.9473 4.39784 5.18673 4.39784C6.37665 4.39784 7.36854 5.17912 8.11562 5.17912C8.82669 5.17912 9.9356 4.35104 11.2893 4.35104C11.8024 4.35104 13.6458 4.39784 14.8591 6.13681ZM10.6467 2.86949C11.2065 2.20522 11.6026 1.28353 11.6026 0.361836C11.6026 0.234023 11.5918 0.10441 11.5684 0C10.6575 0.0342034 9.57377 0.606661 8.9203 1.36454C8.40725 1.94779 7.9284 2.86949 7.9284 3.80378C7.9284 3.94419 7.9518 4.08461 7.9626 4.12961C8.02021 4.14041 8.11382 4.15302 8.20743 4.15302C9.02471 4.15302 10.0526 3.60576 10.6467 2.86949Z" fill="white"/>
</svg>
