<svg width="33" height="32" viewBox="0 0 33 32" fill="none" xmlns="http://www.w3.org/2000/svg">
<path d="M27.2075 10.2925L20.2075 3.2925C20.1146 3.19967 20.0042 3.12605 19.8829 3.07586C19.7615 3.02568 19.6314 2.9999 19.5 3H7.5C6.96957 3 6.46086 3.21071 6.08579 3.58579C5.71071 3.96086 5.5 4.46957 5.5 5V27C5.5 27.5304 5.71071 28.0391 6.08579 28.4142C6.46086 28.7893 6.96957 29 7.5 29H25.5C26.0304 29 26.5391 28.7893 26.9142 28.4142C27.2893 28.0391 27.5 27.5304 27.5 27V11C27.5001 10.8686 27.4743 10.7385 27.4241 10.6172C27.3739 10.4958 27.3003 10.3854 27.2075 10.2925ZM20.5 6.41375L24.0863 10H20.5V6.41375ZM25.5 27H7.5V5H18.5V11C18.5 11.2652 18.6054 11.5196 18.7929 11.7071C18.9804 11.8946 19.2348 12 19.5 12H25.5V27Z" fill="#DBC39B"/>
</svg>
