<svg width="13" height="9" viewBox="0 0 13 9" fill="none" xmlns="http://www.w3.org/2000/svg">
<path d="M12.354 0.853754L4.35403 8.85375C4.30759 8.90024 4.25245 8.93712 4.19175 8.96228C4.13105 8.98745 4.06599 9.0004 4.00028 9.0004C3.93457 9.0004 3.86951 8.98745 3.80881 8.96228C3.74811 8.93712 3.69296 8.90024 3.64653 8.85375L0.146528 5.35375C0.0527077 5.25993 0 5.13269 0 5C0 4.86732 0.0527077 4.74007 0.146528 4.64625C0.240348 4.55243 0.367596 4.49972 0.500278 4.49972C0.63296 4.49972 0.760208 4.55243 0.854028 4.64625L4.00028 7.79313L11.6465 0.146253C11.7403 0.0524328 11.8676 -0.000274659 12.0003 -0.000274658C12.133 -0.000274657 12.2602 0.0524328 12.354 0.146253C12.4478 0.240073 12.5006 0.367321 12.5006 0.500003C12.5006 0.632685 12.4478 0.759933 12.354 0.853754Z" fill="#05DB67"/>
</svg>
