<svg width="22" height="22" viewBox="0 0 22 22" fill="none" xmlns="http://www.w3.org/2000/svg">
<path d="M11 7.25C10.2583 7.25 9.5333 7.46993 8.91661 7.88199C8.29993 8.29404 7.81928 8.87971 7.53545 9.56494C7.25162 10.2502 7.17736 11.0042 7.32206 11.7316C7.46675 12.459 7.8239 13.1272 8.34835 13.6517C8.8728 14.1761 9.54098 14.5333 10.2684 14.6779C10.9958 14.8226 11.7498 14.7484 12.4351 14.4645C13.1203 14.1807 13.706 13.7001 14.118 13.0834C14.5301 12.4667 14.75 11.7417 14.75 11C14.749 10.0058 14.3535 9.05253 13.6505 8.34949C12.9475 7.64645 11.9942 7.25103 11 7.25ZM11 13.5C10.5055 13.5 10.0222 13.3534 9.61107 13.0787C9.19995 12.804 8.87952 12.4135 8.6903 11.9567C8.50108 11.4999 8.45157 10.9972 8.54804 10.5123C8.6445 10.0273 8.8826 9.58186 9.23223 9.23223C9.58186 8.8826 10.0273 8.6445 10.5123 8.54804C10.9972 8.45157 11.4999 8.50108 11.9567 8.6903C12.4135 8.87952 12.804 9.19995 13.0787 9.61107C13.3534 10.0222 13.5 10.5055 13.5 11C13.5 11.663 13.2366 12.2989 12.7678 12.7678C12.2989 13.2366 11.663 13.5 11 13.5ZM14.75 2.875H7.25C6.09006 2.87624 4.97798 3.33758 4.15778 4.15778C3.33758 4.97798 2.87624 6.09006 2.875 7.25V14.75C2.87624 15.9099 3.33758 17.022 4.15778 17.8422C4.97798 18.6624 6.09006 19.1238 7.25 19.125H14.75C15.9099 19.1238 17.022 18.6624 17.8422 17.8422C18.6624 17.022 19.1238 15.9099 19.125 14.75V7.25C19.1238 6.09006 18.6624 4.97798 17.8422 4.15778C17.022 3.33758 15.9099 2.87624 14.75 2.875ZM17.875 14.75C17.875 15.5788 17.5458 16.3737 16.9597 16.9597C16.3737 17.5458 15.5788 17.875 14.75 17.875H7.25C6.4212 17.875 5.62634 17.5458 5.04029 16.9597C4.45424 16.3737 4.125 15.5788 4.125 14.75V7.25C4.125 6.4212 4.45424 5.62634 5.04029 5.04029C5.62634 4.45424 6.4212 4.125 7.25 4.125H14.75C15.5788 4.125 16.3737 4.45424 16.9597 5.04029C17.5458 5.62634 17.875 6.4212 17.875 7.25V14.75ZM16 6.9375C16 7.12292 15.945 7.30418 15.842 7.45835C15.739 7.61252 15.5926 7.73268 15.4213 7.80364C15.25 7.87459 15.0615 7.89316 14.8796 7.85699C14.6977 7.82081 14.5307 7.73152 14.3996 7.60041C14.2685 7.4693 14.1792 7.30225 14.143 7.1204C14.1068 6.93854 14.1254 6.75004 14.1964 6.57873C14.2673 6.40743 14.3875 6.26101 14.5417 6.158C14.6958 6.05498 14.8771 6 15.0625 6C15.3111 6 15.5496 6.09877 15.7254 6.27459C15.9012 6.4504 16 6.68886 16 6.9375Z" fill="white"/>
</svg>
