<svg width="16" height="16" viewBox="0 0 16 16" fill="none" xmlns="http://www.w3.org/2000/svg">
<path d="M0 1.14614C0 0.513315 0.52935 0 1.18237 0H14.8176C15.4706 0 16 0.513315 16 1.14614V14.8539C16 15.4869 15.4706 16 14.8176 16H1.18237C0.52935 16 0 15.4869 0 14.8539V1.14614Z" fill="#006699"/>
<path fill-rule="evenodd" clip-rule="evenodd" d="M4.85053 13.3938V6.1689H2.43387V13.3938H4.85053ZM3.64219 5.18247C4.48493 5.18247 5.00946 4.62768 5.00946 3.93435C4.99376 3.22541 4.48493 2.68601 3.65818 2.68601C2.83151 2.68601 2.29102 3.22541 2.29102 3.93435C2.29102 4.62768 2.81544 5.18247 3.62644 5.18247H3.64219Z" fill="white"/>
<path fill-rule="evenodd" clip-rule="evenodd" d="M6.1875 13.3938H8.60413V9.35911C8.60413 9.14318 8.61984 8.92746 8.68365 8.77311C8.85835 8.34167 9.25599 7.89485 9.9236 7.89485C10.7981 7.89485 11.1479 8.55739 11.1479 9.52865V13.3938H13.5643V9.25115C13.5643 7.03198 12.3721 5.99937 10.7821 5.99937C9.47839 5.99937 8.90605 6.72348 8.58806 7.2167H8.6042V6.1689H6.18757C6.21928 6.84684 6.1875 13.3938 6.1875 13.3938Z" fill="white"/>
</svg>
