<svg width="16" height="16" viewBox="0 0 16 16" fill="none" xmlns="http://www.w3.org/2000/svg">
<g opacity="0.5">
<path d="M13.3075 1.60559C13.2476 1.55893 13.1779 1.52651 13.1036 1.51081C13.0293 1.49511 12.9524 1.49653 12.8788 1.51497L4.87875 3.51497C4.77058 3.54201 4.67455 3.60443 4.60593 3.6923C4.5373 3.78018 4.50002 3.88847 4.5 3.99997V10.88C4.0829 10.6013 3.58462 10.47 3.08434 10.5069C2.58407 10.5438 2.11048 10.7469 1.73882 11.0838C1.36716 11.4207 1.11876 11.8722 1.03307 12.3665C0.947383 12.8607 1.02933 13.3695 1.26589 13.8118C1.50244 14.2542 1.88004 14.6048 2.3387 14.808C2.79735 15.0112 3.31075 15.0552 3.79732 14.9332C4.28389 14.8112 4.71573 14.5301 5.02423 14.1345C5.33273 13.7389 5.50019 13.2516 5.5 12.75V4.39059L12.5 2.64059V8.87997C12.0829 8.60128 11.5846 8.46997 11.0843 8.50691C10.5841 8.54384 10.1105 8.7469 9.73882 9.08382C9.36716 9.42074 9.11876 9.8722 9.03307 10.3665C8.94738 10.8607 9.02933 11.3695 9.26589 11.8118C9.50244 12.2542 9.88004 12.6048 10.3387 12.808C10.7974 13.0112 11.3107 13.0552 11.7973 12.9332C12.2839 12.8112 12.7157 12.5301 13.0242 12.1345C13.3327 11.7389 13.5002 11.2516 13.5 10.75V1.99997C13.5 1.92392 13.4827 1.84887 13.4493 1.78053C13.416 1.71219 13.3675 1.65236 13.3075 1.60559ZM3.25 14C3.00278 14 2.7611 13.9267 2.55554 13.7893C2.34998 13.652 2.18976 13.4567 2.09515 13.2283C2.00054 12.9999 1.97579 12.7486 2.02402 12.5061C2.07225 12.2636 2.1913 12.0409 2.36612 11.8661C2.54094 11.6913 2.76366 11.5722 3.00614 11.524C3.24862 11.4758 3.49995 11.5005 3.72836 11.5951C3.95676 11.6897 4.15199 11.8499 4.28934 12.0555C4.42669 12.2611 4.5 12.5027 4.5 12.75C4.5 13.0815 4.36831 13.3994 4.13389 13.6339C3.89947 13.8683 3.58152 14 3.25 14ZM11.25 12C11.0028 12 10.7611 11.9267 10.5555 11.7893C10.35 11.652 10.1898 11.4567 10.0952 11.2283C10.0005 10.9999 9.97579 10.7486 10.024 10.5061C10.0723 10.2636 10.1913 10.0409 10.3661 9.86609C10.5409 9.69127 10.7637 9.57222 11.0061 9.52399C11.2486 9.47576 11.4999 9.50051 11.7284 9.59512C11.9568 9.68973 12.152 9.84995 12.2893 10.0555C12.4267 10.2611 12.5 10.5027 12.5 10.75C12.5 10.9141 12.4677 11.0767 12.4049 11.2283C12.342 11.38 12.25 11.5178 12.1339 11.6339C12.0178 11.7499 11.88 11.842 11.7284 11.9048C11.5767 11.9676 11.4142 12 11.25 12Z" fill="white"/>
</g>
</svg>
