<svg width="22" height="22" viewBox="0 0 22 22" fill="none" xmlns="http://www.w3.org/2000/svg">
<path d="M18.5 6.625C17.5058 6.62397 16.5525 6.22855 15.8495 5.52551C15.1465 4.82247 14.751 3.86924 14.75 2.875C14.75 2.70924 14.6842 2.55027 14.5669 2.43306C14.4497 2.31585 14.2908 2.25 14.125 2.25H11C10.8342 2.25 10.6753 2.31585 10.5581 2.43306C10.4408 2.55027 10.375 2.70924 10.375 2.875V13.1875C10.3749 13.4671 10.2997 13.7415 10.1574 13.9822C10.0151 14.2229 9.81076 14.4209 9.5658 14.5557C9.32084 14.6905 9.0442 14.7571 8.76474 14.7486C8.48527 14.74 8.21322 14.6566 7.97695 14.5071C7.74069 14.3576 7.54888 14.1474 7.42152 13.8985C7.29416 13.6496 7.23592 13.3711 7.25288 13.092C7.26983 12.8129 7.36137 12.5435 7.51793 12.3119C7.67449 12.0802 7.89034 11.8948 8.14297 11.775C8.24983 11.7243 8.34011 11.6443 8.40331 11.5443C8.46651 11.4443 8.50004 11.3284 8.5 11.2102V7.875C8.50004 7.78364 8.48005 7.69338 8.44144 7.61058C8.40283 7.52778 8.34653 7.45446 8.27652 7.39576C8.2065 7.33707 8.12447 7.29444 8.03621 7.27088C7.94794 7.24731 7.85558 7.24339 7.76562 7.25938C4.97734 7.75625 2.875 10.3047 2.875 13.1875C2.875 14.7622 3.50056 16.2724 4.61405 17.3859C5.72755 18.4994 7.23778 19.125 8.8125 19.125C10.3872 19.125 11.8974 18.4994 13.0109 17.3859C14.1244 16.2724 14.75 14.7622 14.75 13.1875V10.0852C15.9075 10.6891 17.1944 11.003 18.5 11C18.6658 11 18.8247 10.9342 18.9419 10.8169C19.0592 10.6997 19.125 10.5408 19.125 10.375V7.25C19.125 7.08424 19.0592 6.92527 18.9419 6.80806C18.8247 6.69085 18.6658 6.625 18.5 6.625ZM17.875 9.72188C16.6536 9.61365 15.4841 9.17774 14.4898 8.46016C14.3964 8.39297 14.2862 8.35289 14.1714 8.34434C14.0566 8.33579 13.9417 8.3591 13.8394 8.4117C13.737 8.4643 13.6511 8.54415 13.5912 8.64244C13.5314 8.74074 13.4998 8.85365 13.5 8.96875V13.1875C13.5 14.4307 13.0061 15.623 12.1271 16.5021C11.248 17.3811 10.0557 17.875 8.8125 17.875C7.5693 17.875 6.37701 17.3811 5.49794 16.5021C4.61886 15.623 4.125 14.4307 4.125 13.1875C4.125 11.1641 5.425 9.34922 7.25 8.6875V10.8492C6.84598 11.1192 6.51878 11.4892 6.30031 11.9232C6.08184 12.3572 5.97954 12.8405 6.00339 13.3258C6.02724 13.8111 6.17641 14.282 6.43638 14.6925C6.69635 15.103 7.05825 15.4392 7.48679 15.6682C7.91533 15.8972 8.3959 16.0114 8.88166 15.9994C9.36742 15.9875 9.8418 15.8499 10.2586 15.6C10.6753 15.3502 11.0203 14.9966 11.2597 14.5738C11.4992 14.151 11.625 13.6734 11.625 13.1875V3.5H13.5391C13.6796 4.60085 14.1816 5.62389 14.9664 6.40862C15.7511 7.19335 16.7742 7.69538 17.875 7.83594V9.72188Z" fill="white"/>
</svg>
