<svg width="17" height="18" viewBox="0 0 17 18" fill="none" xmlns="http://www.w3.org/2000/svg">
<path d="M8.16675 0.875C6.55978 0.875 4.98889 1.35152 3.65274 2.24431C2.31659 3.1371 1.27519 4.40605 0.660231 5.8907C0.0452685 7.37535 -0.115634 9.00901 0.197871 10.5851C0.511376 12.1612 1.28521 13.6089 2.42151 14.7452C3.55781 15.8815 5.00555 16.6554 6.58164 16.9689C8.15774 17.2824 9.7914 17.1215 11.2761 16.5065C12.7607 15.8916 14.0297 14.8502 14.9224 13.514C15.8152 12.1779 16.2918 10.607 16.2918 9C16.2895 6.84581 15.4327 4.78051 13.9095 3.25727C12.3862 1.73403 10.3209 0.877275 8.16675 0.875ZM8.16675 15.875C6.807 15.875 5.47779 15.4718 4.34721 14.7164C3.21662 13.9609 2.33543 12.8872 1.81508 11.6309C1.29473 10.3747 1.15858 8.99237 1.42385 7.65875C1.68913 6.32513 2.34391 5.10013 3.30539 4.13864C4.26688 3.17716 5.49189 2.52237 6.82551 2.2571C8.15913 1.99183 9.54146 2.12798 10.7977 2.64833C12.0539 3.16868 13.1277 4.04987 13.8831 5.18045C14.6385 6.31104 15.0418 7.64025 15.0418 9C15.0397 10.8227 14.3147 12.5702 13.0258 13.8591C11.737 15.1479 9.98948 15.8729 8.16675 15.875ZM11.9168 9C11.9168 9.16576 11.8509 9.32473 11.7337 9.44194C11.6165 9.55915 11.4575 9.625 11.2918 9.625H8.79175V12.125C8.79175 12.2908 8.7259 12.4497 8.60869 12.5669C8.49148 12.6842 8.33251 12.75 8.16675 12.75C8.00099 12.75 7.84202 12.6842 7.72481 12.5669C7.6076 12.4497 7.54175 12.2908 7.54175 12.125V9.625H5.04175C4.87599 9.625 4.71702 9.55915 4.59981 9.44194C4.4826 9.32473 4.41675 9.16576 4.41675 9C4.41675 8.83424 4.4826 8.67527 4.59981 8.55806C4.71702 8.44085 4.87599 8.375 5.04175 8.375H7.54175V5.875C7.54175 5.70924 7.6076 5.55027 7.72481 5.43306C7.84202 5.31585 8.00099 5.25 8.16675 5.25C8.33251 5.25 8.49148 5.31585 8.60869 5.43306C8.7259 5.55027 8.79175 5.70924 8.79175 5.875V8.375H11.2918C11.4575 8.375 11.6165 8.44085 11.7337 8.55806C11.8509 8.67527 11.9168 8.83424 11.9168 9Z" fill="white"/>
</svg>
