<svg width="22" height="22" viewBox="0 0 22 22" fill="none" xmlns="http://www.w3.org/2000/svg">
<path d="M11 2.875C9.39303 2.875 7.82214 3.35152 6.486 4.24431C5.14985 5.1371 4.10844 6.40605 3.49348 7.8907C2.87852 9.37535 2.71762 11.009 3.03112 12.5851C3.34463 14.1612 4.11846 15.6089 5.25476 16.7452C6.39106 17.8815 7.8388 18.6554 9.4149 18.9689C10.991 19.2824 12.6247 19.1215 14.1093 18.5065C15.594 17.8916 16.8629 16.8502 17.7557 15.514C18.6485 14.1779 19.125 12.607 19.125 11C19.1227 8.84581 18.266 6.78051 16.7427 5.25727C15.2195 3.73403 13.1542 2.87727 11 2.875ZM11 17.875C9.64026 17.875 8.31105 17.4718 7.18046 16.7164C6.04987 15.9609 5.16868 14.8872 4.64833 13.6309C4.12798 12.3747 3.99183 10.9924 4.2571 9.65875C4.52238 8.32513 5.17716 7.10013 6.13864 6.13864C7.10013 5.17716 8.32514 4.52237 9.65876 4.2571C10.9924 3.99183 12.3747 4.12798 13.631 4.64833C14.8872 5.16868 15.9609 6.04987 16.7164 7.18045C17.4718 8.31104 17.875 9.64025 17.875 11C17.8729 12.8227 17.1479 14.5702 15.8591 15.8591C14.5702 17.1479 12.8227 17.8729 11 17.875ZM13.4273 14.2609C13.3498 14.4074 13.2173 14.5171 13.0589 14.5659C12.9006 14.6147 12.7293 14.5986 12.5828 14.5211C12.0962 14.2595 11.5524 14.1226 11 14.1226C10.4476 14.1226 9.90377 14.2595 9.41719 14.5211C9.2711 14.5945 9.10204 14.6078 8.94628 14.5581C8.79051 14.5083 8.66045 14.3995 8.58399 14.2549C8.50753 14.1104 8.49076 13.9417 8.53728 13.7849C8.5838 13.6281 8.68989 13.4958 8.83282 13.4164C9.50059 13.0632 10.2446 12.8786 11 12.8786C11.7554 12.8786 12.4994 13.0632 13.1672 13.4164C13.3137 13.4939 13.4233 13.6264 13.4721 13.7848C13.5209 13.9432 13.5048 14.1144 13.4273 14.2609ZM15.9273 9.88594C15.8887 9.9584 15.8361 10.0225 15.7727 10.0747C15.7092 10.1268 15.6361 10.1659 15.5576 10.1898C15.479 10.2137 15.3965 10.2218 15.3148 10.2138C15.233 10.2057 15.1537 10.1817 15.0813 10.143C13.8262 9.47074 12.4245 9.11899 11.0008 9.11899C9.57705 9.11899 8.17536 9.47074 6.92032 10.143C6.77403 10.2211 6.60271 10.2379 6.44404 10.1897C6.28536 10.1415 6.15234 10.0322 6.07422 9.88594C5.99611 9.73965 5.9793 9.56833 6.02751 9.40966C6.07571 9.25098 6.18497 9.11796 6.33125 9.03984C7.76765 8.27111 9.37162 7.86889 11.0008 7.86889C12.63 7.86889 14.2339 8.27111 15.6703 9.03984C15.7429 9.07856 15.8071 9.13123 15.8593 9.19483C15.9115 9.25843 15.9507 9.33171 15.9745 9.41046C15.9983 9.48921 16.0063 9.57189 15.9981 9.65376C15.9899 9.73562 15.9656 9.81505 15.9266 9.8875L15.9273 9.88594ZM14.6773 12.0734C14.5994 12.2197 14.4666 12.329 14.3081 12.3774C14.1496 12.4257 13.9783 12.4091 13.832 12.3312C12.9607 11.8665 11.9883 11.6233 11.0008 11.6233C10.0132 11.6233 9.04087 11.8665 8.16953 12.3312C8.02357 12.4058 7.85416 12.42 7.6978 12.3709C7.54144 12.3217 7.41064 12.2131 7.3336 12.0684C7.25655 11.9238 7.23942 11.7546 7.28588 11.5975C7.33235 11.4403 7.43871 11.3076 7.58204 11.2281C8.63422 10.667 9.80834 10.3735 11.0008 10.3735C12.1932 10.3735 13.3673 10.667 14.4195 11.2281C14.4921 11.2668 14.5563 11.3194 14.6085 11.3829C14.6607 11.4464 14.6999 11.5196 14.7238 11.5982C14.7476 11.6769 14.7558 11.7595 14.7477 11.8413C14.7396 11.9231 14.7154 12.0025 14.6766 12.075L14.6773 12.0734Z" fill="white"/>
</svg>
