<svg width="12" height="7" viewBox="0 0 12 7" fill="none" xmlns="http://www.w3.org/2000/svg">
<path d="M11.4751 5.62661L6.36177 0.513228C6.31428 0.465685 6.25789 0.427969 6.19581 0.402237C6.13374 0.376504 6.0672 0.36326 6 0.36326C5.9328 0.36326 5.86626 0.376504 5.80419 0.402237C5.74211 0.427969 5.68572 0.465685 5.63823 0.513228L0.524851 5.62661C0.428903 5.72255 0.375 5.85269 0.375 5.98838C0.375 6.12407 0.428903 6.2542 0.524851 6.35015C0.620798 6.4461 0.750931 6.5 0.886622 6.5C1.02231 6.5 1.15245 6.4461 1.24839 6.35015L6 1.5979L10.7516 6.35015C10.7991 6.39766 10.8555 6.43534 10.9176 6.46106C10.9797 6.48677 11.0462 6.5 11.1134 6.5C11.1806 6.5 11.2471 6.48677 11.3092 6.46106C11.3712 6.43534 11.4276 6.39766 11.4751 6.35015C11.5227 6.30264 11.5603 6.24624 11.5861 6.18417C11.6118 6.12209 11.625 6.05557 11.625 5.98838C11.625 5.92119 11.6118 5.85466 11.5861 5.79259C11.5603 5.73052 11.5227 5.67411 11.4751 5.62661Z" fill="white"/>
</svg>
