<svg width="22" height="22" viewBox="0 0 22 22" fill="none" xmlns="http://www.w3.org/2000/svg">
<path d="M2.875 10.375V14.125C2.875 14.2908 2.80915 14.4497 2.69194 14.5669C2.57473 14.6842 2.41576 14.75 2.25 14.75C2.08424 14.75 1.92527 14.6842 1.80806 14.5669C1.69085 14.4497 1.625 14.2908 1.625 14.125V10.375C1.625 10.2092 1.69085 10.0503 1.80806 9.93306C1.92527 9.81585 2.08424 9.75 2.25 9.75C2.41576 9.75 2.57473 9.81585 2.69194 9.93306C2.80915 10.0503 2.875 10.2092 2.875 10.375ZM4.75 7.875C4.58424 7.875 4.42527 7.94085 4.30806 8.05806C4.19085 8.17527 4.125 8.33424 4.125 8.5V16C4.125 16.1658 4.19085 16.3247 4.30806 16.4419C4.42527 16.5592 4.58424 16.625 4.75 16.625C4.91576 16.625 5.07473 16.5592 5.19194 16.4419C5.30915 16.3247 5.375 16.1658 5.375 16V8.5C5.375 8.33424 5.30915 8.17527 5.19194 8.05806C5.07473 7.94085 4.91576 7.875 4.75 7.875ZM7.25 7.25C7.08424 7.25 6.92527 7.31585 6.80806 7.43306C6.69085 7.55027 6.625 7.70924 6.625 7.875V16C6.625 16.1658 6.69085 16.3247 6.80806 16.4419C6.92527 16.5592 7.08424 16.625 7.25 16.625C7.41576 16.625 7.57473 16.5592 7.69194 16.4419C7.80915 16.3247 7.875 16.1658 7.875 16V7.875C7.875 7.70924 7.80915 7.55027 7.69194 7.43306C7.57473 7.31585 7.41576 7.25 7.25 7.25ZM9.75 4.75C9.58424 4.75 9.42527 4.81585 9.30806 4.93306C9.19085 5.05027 9.125 5.20924 9.125 5.375V16C9.125 16.1658 9.19085 16.3247 9.30806 16.4419C9.42527 16.5592 9.58424 16.625 9.75 16.625C9.91576 16.625 10.0747 16.5592 10.1919 16.4419C10.3092 16.3247 10.375 16.1658 10.375 16V5.375C10.375 5.20924 10.3092 5.05027 10.1919 4.93306C10.0747 4.81585 9.91576 4.75 9.75 4.75ZM18.4094 9.30781C18.1579 7.85669 17.4021 6.54098 16.2752 5.59276C15.1483 4.64454 13.7227 4.12473 12.25 4.125C12.0842 4.125 11.9253 4.19085 11.8081 4.30806C11.6908 4.42527 11.625 4.58424 11.625 4.75C11.625 4.91576 11.6908 5.07473 11.8081 5.19194C11.9253 5.30915 12.0842 5.375 12.25 5.375C13.4899 5.37062 14.6868 5.82881 15.6068 6.65998C16.5269 7.49116 17.1039 8.63558 17.225 9.86953C17.2393 10.0025 17.2959 10.1274 17.3865 10.2259C17.477 10.3243 17.5968 10.3911 17.7281 10.4164C18.3437 10.5297 18.8944 10.8698 19.2714 11.3694C19.6484 11.8691 19.8243 12.492 19.7642 13.1151C19.7041 13.7381 19.4125 14.316 18.947 14.7344C18.4815 15.1529 17.8759 15.3814 17.25 15.375H12.25C12.0842 15.375 11.9253 15.4408 11.8081 15.5581C11.6908 15.6753 11.625 15.8342 11.625 16C11.625 16.1658 11.6908 16.3247 11.8081 16.4419C11.9253 16.5592 12.0842 16.625 12.25 16.625H17.25C18.1433 16.6257 19.0076 16.3074 19.6871 15.7275C20.3666 15.1476 20.8168 14.3442 20.9566 13.4619C21.0964 12.5795 20.9166 11.6763 20.4496 10.9147C19.9827 10.1532 19.2592 9.58333 18.4094 9.30781Z" fill="white"/>
</svg>
