<svg width="12" height="7" viewBox="0 0 12 7" fill="none" xmlns="http://www.w3.org/2000/svg">
<path d="M11.4751 1.37339L6.36177 6.48677C6.31428 6.53431 6.25789 6.57203 6.19581 6.59776C6.13374 6.6235 6.0672 6.63674 6 6.63674C5.9328 6.63674 5.86626 6.6235 5.80419 6.59776C5.74211 6.57203 5.68572 6.53431 5.63823 6.48677L0.524851 1.37339C0.428903 1.27745 0.375 1.14731 0.375 1.01162C0.375 0.875932 0.428903 0.745798 0.524851 0.64985C0.620798 0.553903 0.750931 0.5 0.886622 0.5C1.02231 0.5 1.15245 0.553903 1.24839 0.64985L6 5.4021L10.7516 0.64985C10.7991 0.602342 10.8555 0.564656 10.9176 0.538945C10.9797 0.513233 11.0462 0.5 11.1134 0.5C11.1806 0.5 11.2471 0.513233 11.3092 0.538945C11.3712 0.564656 11.4276 0.602342 11.4751 0.64985C11.5227 0.697359 11.5603 0.75376 11.5861 0.815833C11.6118 0.877906 11.625 0.944435 11.625 1.01162C11.625 1.07881 11.6118 1.14534 11.5861 1.20741C11.5603 1.26948 11.5227 1.32589 11.4751 1.37339Z" fill="#54BFBB"/>
</svg>
