<svg width="33" height="32" viewBox="0 0 33 32" fill="none" xmlns="http://www.w3.org/2000/svg">
<path d="M15.5 18H13.5C13.2348 18 12.9804 18.1054 12.7929 18.2929C12.6054 18.4804 12.5 18.7348 12.5 19V26C12.5 26.2652 12.6054 26.5196 12.7929 26.7071C12.9804 26.8946 13.2348 27 13.5 27C13.7652 27 14.0196 26.8946 14.2071 26.7071C14.3946 26.5196 14.5 26.2652 14.5 26V25H15.5C16.4283 25 17.3185 24.6313 17.9749 23.9749C18.6313 23.3185 19 22.4283 19 21.5C19 20.5717 18.6313 19.6815 17.9749 19.0251C17.3185 18.3687 16.4283 18 15.5 18ZM15.5 23H14.5V20H15.5C15.8978 20 16.2794 20.158 16.5607 20.4393C16.842 20.7206 17 21.1022 17 21.5C17 21.8978 16.842 22.2794 16.5607 22.5607C16.2794 22.842 15.8978 23 15.5 23ZM27.5 23V25.1087C27.5 25.3663 27.4006 25.6139 27.2225 25.8C26.8743 26.1748 26.4532 26.4746 25.9851 26.6809C25.5169 26.8873 25.0116 26.9959 24.5 27C22.2938 27 20.5 24.9813 20.5 22.5C20.5 20.0187 22.2938 18 24.5 18C25.2353 18.0023 25.9529 18.2253 26.56 18.64C26.7798 18.7892 26.9313 19.0196 26.9813 19.2805C27.0312 19.5414 26.9754 19.8115 26.8263 20.0312C26.6771 20.251 26.4467 20.4026 26.1858 20.4525C25.9249 20.5024 25.6548 20.4467 25.435 20.2975C25.1607 20.1059 24.8346 20.0021 24.5 20C23.3975 20 22.5 21.125 22.5 22.5C22.5 23.875 23.3975 25 24.5 25C24.8608 24.9958 25.2109 24.8772 25.5 24.6612V24C25.2348 24 24.9804 23.8946 24.7929 23.7071C24.6054 23.5196 24.5 23.2652 24.5 23C24.5 22.7348 24.6054 22.4804 24.7929 22.2929C24.9804 22.1054 25.2348 22 25.5 22H26.5C26.7652 22 27.0196 22.1054 27.2071 22.2929C27.3946 22.4804 27.5 22.7348 27.5 23ZM10.5 19V23.75C10.5 24.612 10.1576 25.4386 9.5481 26.0481C8.9386 26.6576 8.11195 27 7.25 27C6.38805 27 5.5614 26.6576 4.9519 26.0481C4.34241 25.4386 4 24.612 4 23.75C4 23.4848 4.10536 23.2304 4.29289 23.0429C4.48043 22.8554 4.73478 22.75 5 22.75C5.26522 22.75 5.51957 22.8554 5.70711 23.0429C5.89464 23.2304 6 23.4848 6 23.75C6 24.0815 6.1317 24.3995 6.36612 24.6339C6.60054 24.8683 6.91848 25 7.25 25C7.58152 25 7.89946 24.8683 8.13388 24.6339C8.3683 24.3995 8.5 24.0815 8.5 23.75V19C8.5 18.7348 8.60536 18.4804 8.79289 18.2929C8.98043 18.1054 9.23478 18 9.5 18C9.76522 18 10.0196 18.1054 10.2071 18.2929C10.3946 18.4804 10.5 18.7348 10.5 19ZM27.2075 10.2925L20.2075 3.2925C20.1146 3.19967 20.0042 3.12605 19.8829 3.07586C19.7615 3.02568 19.6314 2.9999 19.5 3H7.5C6.96957 3 6.46086 3.21071 6.08579 3.58579C5.71071 3.96086 5.5 4.46957 5.5 5V14C5.5 14.2652 5.60536 14.5196 5.79289 14.7071C5.98043 14.8946 6.23478 15 6.5 15C6.76522 15 7.01957 14.8946 7.20711 14.7071C7.39464 14.5196 7.5 14.2652 7.5 14V5H18.5V11C18.5 11.2652 18.6054 11.5196 18.7929 11.7071C18.9804 11.8946 19.2348 12 19.5 12H25.5V14C25.5 14.2652 25.6054 14.5196 25.7929 14.7071C25.9804 14.8946 26.2348 15 26.5 15C26.7652 15 27.0196 14.8946 27.2071 14.7071C27.3946 14.5196 27.5 14.2652 27.5 14V11C27.5001 10.8686 27.4743 10.7385 27.4241 10.6172C27.3739 10.4958 27.3003 10.3854 27.2075 10.2925ZM20.5 10V6.41375L24.0863 10H20.5Z" fill="#DBC39B"/>
</svg>
