<svg width="33" height="33" viewBox="0 0 33 33" fill="none" xmlns="http://www.w3.org/2000/svg">
<path d="M12.8825 16.5763C12.6998 16.5005 12.4987 16.4805 12.3047 16.519C12.1107 16.5575 11.9324 16.6527 11.7925 16.7925L9.08625 19.5H6.5C6.23478 19.5 5.98043 19.6054 5.79289 19.7929C5.60536 19.9804 5.5 20.2348 5.5 20.5V25.5C5.5 25.7652 5.60536 26.0196 5.79289 26.2071C5.98043 26.3946 6.23478 26.5 6.5 26.5H9.08625L11.7925 29.2075C11.9324 29.3475 12.1106 29.4429 12.3047 29.4815C12.4988 29.5202 12.7 29.5004 12.8828 29.4246C13.0656 29.3489 13.2218 29.2206 13.3317 29.056C13.4416 28.8914 13.5002 28.6979 13.5 28.5V17.5C13.5 17.3022 13.4413 17.1089 13.3314 16.9445C13.2214 16.78 13.0652 16.6519 12.8825 16.5763ZM11.5 26.0863L10.2075 24.7925C10.1146 24.6997 10.0042 24.6261 9.88285 24.5759C9.76145 24.5257 9.63136 24.4999 9.5 24.5H7.5V21.5H9.5C9.63136 21.5001 9.76145 21.4743 9.88285 21.4241C10.0042 21.3739 10.1146 21.3003 10.2075 21.2075L11.5 19.9137V26.0863ZM19.5 23C19.499 23.882 19.2678 24.7485 18.8294 25.5138C18.3909 26.2791 17.7604 26.9168 17 27.3638C16.7723 27.4771 16.51 27.4995 16.2664 27.4262C16.0228 27.353 15.8163 27.1897 15.6888 26.9696C15.5614 26.7494 15.5227 26.489 15.5805 26.2413C15.6383 25.9936 15.7883 25.7772 16 25.6362C16.4585 25.3656 16.8384 24.9802 17.1024 24.5178C17.3663 24.0555 17.5052 23.5324 17.5052 23C17.5052 22.4676 17.3663 21.9445 17.1024 21.4822C16.8384 21.0198 16.4585 20.6344 16 20.3638C15.7883 20.2228 15.6383 20.0064 15.5805 19.7587C15.5227 19.511 15.5614 19.2506 15.6888 19.0304C15.8163 18.8103 16.0228 18.647 16.2664 18.5738C16.51 18.5005 16.7723 18.5229 17 18.6362C17.7604 19.0832 18.3909 19.7209 18.8294 20.4862C19.2678 21.2515 19.499 22.118 19.5 23ZM27.2075 10.7925L20.2075 3.7925C20.1146 3.69967 20.0042 3.62605 19.8829 3.57586C19.7615 3.52568 19.6314 3.4999 19.5 3.5H7.5C6.96957 3.5 6.46086 3.71071 6.08579 4.08579C5.71071 4.46086 5.5 4.96957 5.5 5.5V15.5C5.5 15.7652 5.60536 16.0196 5.79289 16.2071C5.98043 16.3946 6.23478 16.5 6.5 16.5C6.76522 16.5 7.01957 16.3946 7.20711 16.2071C7.39464 16.0196 7.5 15.7652 7.5 15.5V5.5H18.5V11.5C18.5 11.7652 18.6054 12.0196 18.7929 12.2071C18.9804 12.3946 19.2348 12.5 19.5 12.5H25.5V27.5H21.5C21.2348 27.5 20.9804 27.6054 20.7929 27.7929C20.6054 27.9804 20.5 28.2348 20.5 28.5C20.5 28.7652 20.6054 29.0196 20.7929 29.2071C20.9804 29.3946 21.2348 29.5 21.5 29.5H25.5C26.0304 29.5 26.5391 29.2893 26.9142 28.9142C27.2893 28.5391 27.5 28.0304 27.5 27.5V11.5C27.5001 11.3686 27.4743 11.2385 27.4241 11.1172C27.3739 10.9958 27.3003 10.8854 27.2075 10.7925ZM20.5 6.91375L24.0863 10.5H20.5V6.91375Z" fill="#DBC39B"/>
</svg>
