<svg width="16" height="14" viewBox="0 0 16 14" fill="none" xmlns="http://www.w3.org/2000/svg">
<path d="M0.682811 7.44229L6.30781 13.0673C6.42509 13.1846 6.58415 13.2505 6.75 13.2505C6.91585 13.2505 7.07491 13.1846 7.19219 13.0673C7.30946 12.95 7.37535 12.791 7.37535 12.6251C7.37535 12.4593 7.30946 12.3002 7.19219 12.1829L2.63359 7.6251H14.875C15.0408 7.6251 15.1997 7.55926 15.3169 7.44205C15.4342 7.32484 15.5 7.16586 15.5 7.0001C15.5 6.83434 15.4342 6.67537 15.3169 6.55816C15.1997 6.44095 15.0408 6.3751 14.875 6.3751H2.63359L7.19219 1.81729C7.30946 1.70002 7.37535 1.54096 7.37535 1.3751C7.37535 1.20925 7.30946 1.05019 7.19219 0.932916C7.07491 0.81564 6.91585 0.749756 6.75 0.749756C6.58415 0.749756 6.42509 0.81564 6.30781 0.932916L0.682811 6.55792C0.624701 6.61596 0.578601 6.68489 0.547149 6.76077C0.515696 6.83664 0.499507 6.91797 0.499507 7.0001C0.499507 7.08224 0.515696 7.16357 0.547149 7.23944C0.578601 7.31531 0.624701 7.38425 0.682811 7.44229Z" fill="white"/>
</svg>
