<svg width="20" height="10" viewBox="0 0 20 10" fill="none" xmlns="http://www.w3.org/2000/svg">
<path d="M6.25 4.375H13.75C13.9158 4.375 14.0747 4.44085 14.1919 4.55806C14.3092 4.67527 14.375 4.83424 14.375 5C14.375 5.16576 14.3092 5.32473 14.1919 5.44194C14.0747 5.55915 13.9158 5.625 13.75 5.625H6.25C6.08424 5.625 5.92527 5.55915 5.80806 5.44194C5.69085 5.32473 5.625 5.16576 5.625 5C5.625 4.83424 5.69085 4.67527 5.80806 4.55806C5.92527 4.44085 6.08424 4.375 6.25 4.375ZM8.125 8.125H5C4.1712 8.125 3.37634 7.79576 2.79029 7.20971C2.20424 6.62366 1.875 5.8288 1.875 5C1.875 4.1712 2.20424 3.37634 2.79029 2.79029C3.37634 2.20424 4.1712 1.875 5 1.875H8.125C8.29076 1.875 8.44973 1.80915 8.56694 1.69194C8.68415 1.57473 8.75 1.41576 8.75 1.25C8.75 1.08424 8.68415 0.925269 8.56694 0.808058C8.44973 0.690848 8.29076 0.625 8.125 0.625H5C3.83968 0.625 2.72688 1.08594 1.90641 1.90641C1.08594 2.72688 0.625 3.83968 0.625 5C0.625 6.16032 1.08594 7.27312 1.90641 8.09359C2.72688 8.91406 3.83968 9.375 5 9.375H8.125C8.29076 9.375 8.44973 9.30915 8.56694 9.19194C8.68415 9.07473 8.75 8.91576 8.75 8.75C8.75 8.58424 8.68415 8.42527 8.56694 8.30806C8.44973 8.19085 8.29076 8.125 8.125 8.125ZM15 0.625H11.875C11.7092 0.625 11.5503 0.690848 11.4331 0.808058C11.3158 0.925269 11.25 1.08424 11.25 1.25C11.25 1.41576 11.3158 1.57473 11.4331 1.69194C11.5503 1.80915 11.7092 1.875 11.875 1.875H15C15.8288 1.875 16.6237 2.20424 17.2097 2.79029C17.7958 3.37634 18.125 4.1712 18.125 5C18.125 5.8288 17.7958 6.62366 17.2097 7.20971C16.6237 7.79576 15.8288 8.125 15 8.125H11.875C11.7092 8.125 11.5503 8.19085 11.4331 8.30806C11.3158 8.42527 11.25 8.58424 11.25 8.75C11.25 8.91576 11.3158 9.07473 11.4331 9.19194C11.5503 9.30915 11.7092 9.375 11.875 9.375H15C16.1603 9.375 17.2731 8.91406 18.0936 8.09359C18.9141 7.27312 19.375 6.16032 19.375 5C19.375 3.83968 18.9141 2.72688 18.0936 1.90641C17.2731 1.08594 16.1603 0.625 15 0.625Z" fill="#54BFBB"/>
</svg>
