<svg width="22" height="22" viewBox="0 0 22 22" fill="none" xmlns="http://www.w3.org/2000/svg">
<path d="M13.0469 11.8072C13.3095 11.4326 13.4644 10.9931 13.4946 10.5366C13.5247 10.0801 13.429 9.62406 13.2179 9.21818C13.0068 8.8123 12.6884 8.47213 12.2973 8.23472C11.9062 7.99732 11.4575 7.87178 11 7.87178C10.5425 7.87178 10.0938 7.99732 9.70269 8.23472C9.31161 8.47213 8.99318 8.8123 8.78207 9.21818C8.57096 9.62406 8.47528 10.0801 8.50544 10.5366C8.5356 10.9931 8.69045 11.4326 8.95313 11.8072C8.68544 11.9335 8.45106 12.1208 8.26875 12.354C8.0938 12.5773 7.97251 12.8377 7.91426 13.1153C7.85601 13.3928 7.86236 13.6801 7.93281 13.9548L8.88438 17.7048C8.98877 18.1124 9.22622 18.4734 9.55908 18.7307C9.89194 18.988 10.3012 19.1268 10.7219 19.1251H11.2781C11.6985 19.1269 12.1075 18.9885 12.4403 18.7316C12.7731 18.4748 13.0108 18.1143 13.1156 17.7072L14.0672 13.9572C14.1376 13.6824 14.144 13.3952 14.0857 13.1176C14.0275 12.8401 13.9062 12.5796 13.7313 12.3564C13.5492 12.1223 13.3148 11.9342 13.0469 11.8072ZM11 9.12512C11.2472 9.12512 11.4889 9.19843 11.6945 9.33578C11.9 9.47314 12.0602 9.66836 12.1549 9.89677C12.2495 10.1252 12.2742 10.3765 12.226 10.619C12.1778 10.8615 12.0587 11.0842 11.8839 11.259C11.7091 11.4338 11.4863 11.5529 11.2439 11.6011C11.0014 11.6493 10.7501 11.6246 10.5216 11.53C10.2932 11.4354 10.098 11.2751 9.96066 11.0696C9.82331 10.864 9.75 10.6223 9.75 10.3751C9.75 10.0436 9.8817 9.72566 10.1161 9.49124C10.3505 9.25682 10.6685 9.12512 11 9.12512ZM12.8555 13.6493L11.9039 17.3993C11.8676 17.5369 11.7863 17.6584 11.6731 17.7446C11.5599 17.8308 11.4212 17.8767 11.2789 17.8751H10.7227C10.5804 17.8767 10.4416 17.8308 10.3284 17.7446C10.2152 17.6584 10.134 17.5369 10.0977 17.3993L9.14609 13.6493C9.12263 13.5591 9.12043 13.4646 9.13968 13.3734C9.15893 13.2822 9.19911 13.1966 9.25703 13.1236C9.31792 13.0455 9.39595 12.9825 9.48509 12.9394C9.57423 12.8963 9.67209 12.8743 9.77109 12.8751H12.232C12.331 12.8743 12.4289 12.8963 12.518 12.9394C12.6072 12.9825 12.6852 13.0455 12.7461 13.1236C12.8038 13.1968 12.8436 13.2824 12.8626 13.3736C12.8816 13.4648 12.8792 13.5592 12.8555 13.6493ZM6.625 11.0001C6.62476 11.369 6.67096 11.7365 6.7625 12.0939C6.78445 12.1738 6.79028 12.2573 6.77966 12.3395C6.76904 12.4217 6.74217 12.5009 6.70063 12.5727C6.65909 12.6444 6.60369 12.7071 6.53767 12.7572C6.47166 12.8073 6.39633 12.8438 6.31608 12.8645C6.23583 12.8853 6.15227 12.8898 6.07024 12.8779C5.98821 12.866 5.90937 12.838 5.8383 12.7953C5.76723 12.7527 5.70534 12.6964 5.65625 12.6296C5.60716 12.5628 5.57184 12.4869 5.55235 12.4064C5.33859 11.5754 5.31777 10.7065 5.49149 9.86623C5.66521 9.02595 6.02886 8.23656 6.55461 7.55845C7.08036 6.88035 7.75428 6.33151 8.52478 5.95393C9.29529 5.57636 10.142 5.38006 11 5.38006C11.858 5.38006 12.7047 5.57636 13.4752 5.95393C14.2457 6.33151 14.9196 6.88035 15.4454 7.55845C15.9711 8.23656 16.3348 9.02595 16.5085 9.86623C16.6822 10.7065 16.6614 11.5754 16.4477 12.4064C16.413 12.5405 16.3349 12.6592 16.2254 12.7441C16.116 12.8289 15.9815 12.875 15.843 12.8751C15.7903 12.8751 15.7378 12.8686 15.6867 12.8556C15.5263 12.8142 15.3888 12.7108 15.3046 12.5681C15.2203 12.4254 15.1962 12.2551 15.2375 12.0947C15.3919 11.4936 15.4166 10.8666 15.31 10.2552C15.2035 9.64385 14.9681 9.06216 14.6194 8.54876C14.2708 8.03536 13.817 7.602 13.2881 7.27745C12.7591 6.95291 12.1672 6.7446 11.5516 6.66636C10.9359 6.58812 10.3107 6.64175 9.71742 6.82368C9.12412 7.0056 8.5763 7.31167 8.11036 7.72155C7.64441 8.13143 7.27099 8.63574 7.0149 9.20101C6.75881 9.76627 6.6259 10.3796 6.625 11.0001ZM19.125 11.0001C19.1261 12.3408 18.7949 13.6609 18.1611 14.8424C17.5273 16.0239 16.6106 17.0298 15.493 17.7704C15.355 17.8588 15.1878 17.8894 15.0274 17.8557C14.867 17.822 14.7263 17.7267 14.6356 17.5902C14.5448 17.4538 14.5113 17.2872 14.5422 17.1262C14.5731 16.9653 14.6659 16.8229 14.8008 16.7298C16.0313 15.9133 16.9663 14.7222 17.4671 13.3329C17.968 11.9436 18.0082 10.43 17.5818 9.01608C17.1553 7.60217 16.285 6.36315 15.0995 5.48246C13.914 4.60177 12.4764 4.12622 10.9996 4.12622C9.52279 4.12622 8.08523 4.60177 6.89975 5.48246C5.71426 6.36315 4.84388 7.60217 4.41745 9.01608C3.99102 10.43 4.03122 11.9436 4.53209 13.3329C5.03296 14.7222 5.96788 15.9133 7.19844 16.7298C7.31013 16.8041 7.39494 16.9124 7.44033 17.0387C7.48571 17.165 7.48926 17.3025 7.45045 17.4309C7.41164 17.5593 7.33253 17.6719 7.22482 17.7519C7.11711 17.8319 6.98651 17.8751 6.85235 17.8751C6.7294 17.8753 6.60918 17.8389 6.50703 17.7704C5.33661 16.9936 4.38757 15.9267 3.75256 14.6736C3.11755 13.4206 2.81825 12.0244 2.88387 10.6211C2.9495 9.21794 3.37781 7.85571 4.127 6.66743C4.8762 5.47914 5.92067 4.5054 7.15849 3.84123C8.39631 3.17707 9.78518 2.84517 11.1895 2.87794C12.5939 2.91071 13.9658 3.30703 15.1713 4.02821C16.3768 4.74938 17.3747 5.77079 18.0676 6.99272C18.7606 8.21466 19.1249 9.59538 19.125 11.0001Z" fill="white"/>
</svg>
